<svg
  width="24"
  height="24"
  viewBox="0 0 281 440"
  fill="none"
  xmlns="http://www.w3.org/2000/svg"
>
  <path
    d="M242.498 13L242.498 109.393"
    stroke="black"
    stroke-width="25"
    stroke-linecap="round"
  />
  <path
    d="M269 164.149L216 219.842"
    stroke="black"
    stroke-width="25"
    stroke-linecap="round"
  />
  <path
    d="M242 281.325V427"
    stroke="black"
    stroke-width="25"
    stroke-linecap="round"
  />
  <path
    d="M16.4014 19.1628C61.5081 100.705 106.615 182.247 151.721 263.789C163.647 285.348 175.572 306.906 187.498 328.465C189.326 331.77 191.154 335.075 192.982 338.38C193.745 339.759 197.43 346.419 194.716 341.514C178.462 312.13 162.207 282.746 145.953 253.362C106.016 181.165 66.0786 108.967 26.1414 36.7705C22.2328 29.7046 18.3242 22.6388 14.4156 15.5729C11.3141 9.96612 14.0593 14.9289 15.5504 17.6243C19.9948 25.6588 24.4393 33.6934 28.8838 41.728C95.4563 162.075 295.174 523.117 228.601 402.77C221.309 389.588 214.018 376.406 206.726 363.224C202.05 354.772 188.023 329.414 192.699 337.867C202.975 356.443 213.251 375.019 223.526 393.596C225.407 396.996 231.049 407.196 229.169 403.796C227.834 401.383 226.5 398.971 225.165 396.559C222.717 392.133 220.269 387.708 217.821 383.282"
    stroke="black"
    stroke-width="25"
    stroke-linecap="round"
  />
  <path
    d="M13 13.0138L13 426.992"
    stroke="black"
    stroke-width="25"
    stroke-linecap="round"
  />
</svg>
